<svg width="200" height="100" viewBox="0 0 200 100" fill="none" xmlns="http://www.w3.org/2000/svg">
<g clip-path="url(#clip0_172_325)">
<g style="mix-blend-mode:darken">
<path d="M37.8053 25.24C41.3253 25.24 44.2053 25.7733 46.4453 26.84C48.7386 27.8533 50.7653 29.0533 52.5253 30.44C53.592 31.24 54.392 31.3467 54.9253 30.76C55.512 30.12 55.912 28.6533 56.1253 26.36H57.9653C57.8586 28.44 57.7786 30.9733 57.7253 33.96C57.672 36.8933 57.6453 40.8133 57.6453 45.72H55.8053C55.5386 43.2667 55.192 41.1867 54.7653 39.48C54.3386 37.72 53.752 36.1733 53.0053 34.84C52.2586 33.5067 51.192 32.3067 49.8053 31.24C48.472 29.9067 46.9253 28.92 45.1653 28.28C43.4053 27.64 41.5653 27.32 39.6453 27.32C36.7653 27.32 34.312 28.0933 32.2853 29.64C30.2586 31.1333 28.6053 33.1867 27.3253 35.8C26.0986 38.4133 25.192 41.3733 24.6053 44.68C24.0186 47.9333 23.7253 51.32 23.7253 54.84C23.7253 58.4133 24.0186 61.8533 24.6053 65.16C25.2453 68.4133 26.2053 71.32 27.4853 73.88C28.8186 76.44 30.5253 78.4667 32.6053 79.96C34.6853 81.4533 37.1386 82.2 39.9653 82.2C41.7253 82.2 43.4853 81.88 45.2453 81.24C47.0586 80.5467 48.6053 79.56 49.8853 78.28C51.9653 76.68 53.3786 74.7067 54.1253 72.36C54.872 69.96 55.432 66.7867 55.8053 62.84H57.6453C57.6453 67.9067 57.672 72.0133 57.7253 75.16C57.7786 78.2533 57.8586 80.8667 57.9653 83H56.1253C55.912 80.7067 55.5386 79.2667 55.0053 78.68C54.5253 78.0933 53.6986 78.1733 52.5253 78.92C50.552 80.3067 48.4453 81.5333 46.2053 82.6C44.0186 83.6133 41.192 84.12 37.7253 84.12C32.072 84.12 27.112 82.9733 22.8453 80.68C18.632 78.3867 15.352 75.08 13.0053 70.76C10.6586 66.44 9.48531 61.24 9.48531 55.16C9.48531 49.1867 10.6853 43.96 13.0853 39.48C15.5386 35 18.872 31.5067 23.0853 29C27.352 26.4933 32.2586 25.24 37.8053 25.24ZM89.2516 26.2C91.3316 26.2 93.0116 26.36 94.2916 26.68C95.5716 26.9467 96.6649 27.3467 97.5716 27.88C98.4249 28.2533 99.1982 28.7333 99.8916 29.32C100.638 29.9067 101.252 30.6267 101.732 31.48C102.212 32.3333 102.452 33.2933 102.452 34.36C102.452 35.96 101.838 37.24 100.612 38.2C99.3849 39.16 97.9449 39.64 96.2916 39.64C94.6916 39.64 93.3049 39.24 92.1316 38.44C91.0116 37.64 90.4516 36.3867 90.4516 34.68C90.4516 33.3467 90.9316 32.1467 91.8916 31.08C92.8516 29.96 94.0782 29.2667 95.5716 29C95.1982 28.5733 94.5049 28.2267 93.4916 27.96C92.5316 27.6933 91.4649 27.56 90.2916 27.56C87.5182 27.56 85.1449 28.44 83.1716 30.2C81.2516 31.9067 80.2916 34.52 80.2916 38.04C80.2916 39.2667 80.5049 40.5733 80.9316 41.96C81.3582 43.3467 82.1849 44.76 83.4116 46.2C84.3182 45.9867 85.1449 45.8267 85.8916 45.72C86.6916 45.6133 87.3582 45.56 87.8916 45.56C88.8516 45.56 89.5716 45.7733 90.0516 46.2C90.5849 46.5733 90.8516 47.08 90.8516 47.72C90.8516 48.2 90.6382 48.6 90.2116 48.92C89.7849 49.24 89.2516 49.4 88.6116 49.4C87.7049 49.4 86.7716 49.16 85.8116 48.68C84.8516 48.1467 84.0782 47.6933 83.4916 47.32C80.9849 48.6 78.9316 50.2533 77.3316 52.28C75.7849 54.2533 75.0116 56.92 75.0116 60.28C75.0116 63.8 75.9716 66.7067 77.8916 69C79.8116 71.24 82.5049 72.9467 85.9716 74.12C89.4916 75.24 93.6249 75.8 98.3716 75.8C101.038 75.8 103.678 75.5067 106.292 74.92C108.905 74.3333 111.252 73.4533 113.332 72.28C115.465 71.1067 117.172 69.6667 118.452 67.96C119.732 66.2 120.372 64.1733 120.372 61.88C120.372 61.0267 120.238 59.96 119.972 58.68C119.758 57.3467 119.198 56.04 118.292 54.76C117.385 53.4267 115.892 52.3333 113.812 51.48L114.372 50.76C117.252 51.6667 119.438 53.3733 120.932 55.88C122.425 58.3867 123.172 61.2667 123.172 64.52C123.172 68.2533 122.025 71.6133 119.732 74.6C117.438 77.5333 114.212 79.8533 110.052 81.56C105.945 83.2667 101.118 84.12 95.5716 84.12C91.1449 84.12 87.1182 83.6667 83.4916 82.76C79.9182 81.8533 76.8249 80.5467 74.2116 78.84C71.6516 77.08 69.6516 74.9733 68.2116 72.52C66.8249 70.0667 66.1316 67.2933 66.1316 64.2C66.1316 61.2133 66.7449 58.68 67.9716 56.6C69.2516 54.4667 70.7982 52.7333 72.6116 51.4C74.4249 50.0133 76.2382 48.9467 78.0516 48.2C79.8649 47.4533 81.3049 46.9467 82.3716 46.68C80.7182 45.9867 79.1982 45.1867 77.8116 44.28C76.4782 43.32 75.3849 42.2 74.5316 40.92C73.7316 39.64 73.3316 38.2 73.3316 36.6C73.3316 34.8933 73.7849 33.4 74.6916 32.12C75.5982 30.7867 76.7982 29.6933 78.2916 28.84C79.8382 27.9867 81.5449 27.3467 83.4116 26.92C85.3316 26.44 87.2782 26.2 89.2516 26.2ZM120.692 25.24C124.478 25.24 127.545 26.2267 129.892 28.2C132.238 30.1733 133.412 32.9467 133.412 36.52C133.412 39.24 132.745 41.5333 131.412 43.4C130.132 45.2667 128.265 46.7867 125.812 47.96C123.412 49.1333 120.532 50.0667 117.172 50.76C116.425 51.0267 115.492 51.3467 114.372 51.72C113.252 52.04 112.105 52.36 110.932 52.68C109.758 53 108.612 53.32 107.492 53.64C106.425 53.96 105.492 54.2267 104.692 54.44C100.532 55.3467 97.3316 56.3867 95.0916 57.56C92.8516 58.68 91.7316 60.2267 91.7316 62.2C91.7316 63.5333 92.1582 64.68 93.0116 65.64C93.9182 66.6 95.0382 67.3467 96.3716 67.88C97.7049 68.4133 99.0382 68.68 100.372 68.68C100.745 68.68 101.145 68.6533 101.572 68.6C101.998 68.4933 102.398 68.3867 102.772 68.28C103.145 68.12 103.412 67.9867 103.572 67.88C102.238 67.4533 101.225 66.7867 100.532 65.88C99.8916 64.92 99.5716 63.8267 99.5716 62.6C99.5716 60.8933 100.185 59.5867 101.412 58.68C102.638 57.7733 104.158 57.32 105.972 57.32C107.892 57.32 109.385 57.8267 110.452 58.84C111.572 59.8533 112.132 61.16 112.132 62.76C112.132 64.4133 111.625 65.8 110.612 66.92C109.598 67.9867 108.238 68.7867 106.532 69.32C104.825 69.8 102.905 70.04 100.772 70.04C98.6916 70.04 96.7182 69.6667 94.8516 68.92C93.0382 68.1733 91.5716 67.0533 90.4516 65.56C89.3849 64.0133 88.8516 62.0933 88.8516 59.8C88.8516 56.9733 89.5716 54.6267 91.0116 52.76C92.4516 50.84 94.5049 49.2667 97.1716 48.04C99.8916 46.76 103.092 45.7733 106.772 45.08C107.892 44.8133 109.118 44.52 110.452 44.2C111.838 43.8267 113.252 43.4533 114.692 43.08C116.132 42.7067 117.465 42.3067 118.692 41.88C122.532 40.92 125.492 39.8533 127.572 38.68C129.705 37.5067 130.772 35.9333 130.772 33.96C130.772 32.52 130.318 31.2667 129.412 30.2C128.558 29.08 127.438 28.2267 126.052 27.64C124.665 27 123.225 26.68 121.732 26.68C121.252 26.68 120.798 26.7067 120.372 26.76C119.998 26.8133 119.678 26.92 119.412 27.08C120.745 27.56 121.732 28.28 122.372 29.24C123.012 30.2 123.332 31.16 123.332 32.12C123.332 33.7733 122.718 35.0533 121.492 35.96C120.265 36.8133 118.745 37.24 116.932 37.24C115.118 37.24 113.625 36.7867 112.452 35.88C111.278 34.92 110.692 33.6133 110.692 31.96C110.692 30.52 111.092 29.32 111.892 28.36C112.745 27.3467 113.918 26.5733 115.412 26.04C116.905 25.5067 118.665 25.24 120.692 25.24ZM167.527 25.24C171.153 25.24 174.113 25.7467 176.407 26.76C178.7 27.7733 180.753 29 182.567 30.44C183.207 30.92 183.74 31.16 184.167 31.16C185.18 31.16 185.847 29.56 186.167 26.36H188.007C187.9 28.44 187.82 30.9733 187.767 33.96C187.713 36.8933 187.687 40.8133 187.687 45.72H185.847C185.473 42.52 184.887 39.7467 184.087 37.4C183.34 35 181.927 32.9467 179.847 31.24C178.567 30.0133 176.967 29.0533 175.047 28.36C173.18 27.6667 171.287 27.32 169.367 27.32C166.433 27.32 163.927 28.0933 161.847 29.64C159.767 31.1333 158.06 33.1867 156.727 35.8C155.393 38.4133 154.407 41.3733 153.767 44.68C153.127 47.9333 152.807 51.32 152.807 54.84C152.807 64.44 154.113 71.4533 156.727 75.88C159.393 80.3067 163.207 82.52 168.167 82.52C169.447 82.52 170.567 82.36 171.527 82.04C172.487 81.72 173.26 81.3467 173.847 80.92C174.593 80.3867 175.1 79.8267 175.367 79.24C175.633 78.6 175.767 77.7733 175.767 76.76V68.92C175.767 66.4667 175.553 64.6533 175.127 63.48C174.753 62.2533 173.98 61.4267 172.807 61C171.633 60.5733 169.927 60.3333 167.687 60.28V58.68C168.807 58.7333 170.14 58.7867 171.687 58.84C173.287 58.84 174.94 58.8667 176.647 58.92C178.353 58.92 179.927 58.92 181.367 58.92C183.607 58.92 185.66 58.8933 187.527 58.84C189.393 58.7867 190.913 58.7333 192.087 58.68V60.28C191.073 60.3333 190.3 60.52 189.767 60.84C189.287 61.16 188.94 61.8 188.727 62.76C188.567 63.72 188.487 65.1867 188.487 67.16V83H186.887C186.833 82.0933 186.62 81.1067 186.247 80.04C185.927 78.9733 185.367 78.44 184.567 78.44C184.193 78.44 183.687 78.5467 183.047 78.76C182.46 78.92 181.527 79.3733 180.247 80.12C178.273 81.24 176.193 82.2 174.007 83C171.82 83.7467 169.527 84.12 167.127 84.12C160.94 84.12 155.713 82.9733 151.447 80.68C147.18 78.3867 143.953 75.1067 141.767 70.84C139.633 66.52 138.567 61.3467 138.567 55.32C138.567 49.24 139.793 43.96 142.247 39.48C144.753 35 148.167 31.5067 152.487 29C156.86 26.4933 161.873 25.24 167.527 25.24Z" fill="#FFFCFC"/>
</g>
</g>
<defs>
<clipPath id="clip0_172_325">
<rect width="200" height="100" fill="white"/>
</clipPath>
</defs>
</svg>
