<svg width="100" height="100" viewBox="0 0 100 100" fill="none" xmlns="http://www.w3.org/2000/svg">
<g clip-path="url(#clip0_172_326)">
<g style="mix-blend-mode:darken">
<path d="M40.4625 26.2C42.5425 26.2 44.2225 26.36 45.5025 26.68C46.7825 26.9467 47.8758 27.3467 48.7825 27.88C49.6358 28.2533 50.4092 28.7333 51.1025 29.32C51.8492 29.9067 52.4625 30.6267 52.9425 31.48C53.4225 32.3333 53.6625 33.2933 53.6625 34.36C53.6625 35.96 53.0492 37.24 51.8225 38.2C50.5958 39.16 49.1558 39.64 47.5025 39.64C45.9025 39.64 44.5158 39.24 43.3425 38.44C42.2225 37.64 41.6625 36.3867 41.6625 34.68C41.6625 33.3467 42.1425 32.1467 43.1025 31.08C44.0625 29.96 45.2892 29.2667 46.7825 29C46.4092 28.5733 45.7158 28.2267 44.7025 27.96C43.7425 27.6933 42.6758 27.56 41.5025 27.56C38.7292 27.56 36.3558 28.44 34.3825 30.2C32.4625 31.9067 31.5025 34.52 31.5025 38.04C31.5025 39.2667 31.7158 40.5733 32.1425 41.96C32.5692 43.3467 33.3958 44.76 34.6225 46.2C35.5292 45.9867 36.3558 45.8267 37.1025 45.72C37.9025 45.6133 38.5692 45.56 39.1025 45.56C40.0625 45.56 40.7825 45.7733 41.2625 46.2C41.7958 46.5733 42.0625 47.08 42.0625 47.72C42.0625 48.2 41.8492 48.6 41.4225 48.92C40.9958 49.24 40.4625 49.4 39.8225 49.4C38.9158 49.4 37.9825 49.16 37.0225 48.68C36.0625 48.1467 35.2892 47.6933 34.7025 47.32C32.1958 48.6 30.1425 50.2533 28.5425 52.28C26.9958 54.2533 26.2225 56.92 26.2225 60.28C26.2225 63.8 27.1825 66.7067 29.1025 69C31.0225 71.24 33.7158 72.9467 37.1825 74.12C40.7025 75.24 44.8358 75.8 49.5825 75.8C52.2492 75.8 54.8892 75.5067 57.5025 74.92C60.1158 74.3333 62.4625 73.4533 64.5425 72.28C66.6758 71.1067 68.3825 69.6667 69.6625 67.96C70.9425 66.2 71.5825 64.1733 71.5825 61.88C71.5825 61.0267 71.4492 59.96 71.1825 58.68C70.9692 57.3467 70.4092 56.04 69.5025 54.76C68.5958 53.4267 67.1025 52.3333 65.0225 51.48L65.5825 50.76C68.4625 51.6667 70.6492 53.3733 72.1425 55.88C73.6358 58.3867 74.3825 61.2667 74.3825 64.52C74.3825 68.2533 73.2358 71.6133 70.9425 74.6C68.6492 77.5333 65.4225 79.8533 61.2625 81.56C57.1558 83.2667 52.3292 84.12 46.7825 84.12C42.3558 84.12 38.3292 83.6667 34.7025 82.76C31.1292 81.8533 28.0358 80.5467 25.4225 78.84C22.8625 77.08 20.8625 74.9733 19.4225 72.52C18.0358 70.0667 17.3425 67.2933 17.3425 64.2C17.3425 61.2133 17.9558 58.68 19.1825 56.6C20.4625 54.4667 22.0092 52.7333 23.8225 51.4C25.6358 50.0133 27.4492 48.9467 29.2625 48.2C31.0758 47.4533 32.5158 46.9467 33.5825 46.68C31.9292 45.9867 30.4092 45.1867 29.0225 44.28C27.6892 43.32 26.5958 42.2 25.7425 40.92C24.9425 39.64 24.5425 38.2 24.5425 36.6C24.5425 34.8933 24.9958 33.4 25.9025 32.12C26.8092 30.7867 28.0092 29.6933 29.5025 28.84C31.0492 27.9867 32.7558 27.3467 34.6225 26.92C36.5425 26.44 38.4892 26.2 40.4625 26.2ZM71.9025 25.24C75.6892 25.24 78.7558 26.2267 81.1025 28.2C83.4492 30.1733 84.6225 32.9467 84.6225 36.52C84.6225 39.24 83.9558 41.5333 82.6225 43.4C81.3425 45.2667 79.4758 46.7867 77.0225 47.96C74.6225 49.1333 71.7425 50.0667 68.3825 50.76C67.6358 51.0267 66.7025 51.3467 65.5825 51.72C64.4625 52.04 63.3158 52.36 62.1425 52.68C60.9692 53 59.8225 53.32 58.7025 53.64C57.6358 53.96 56.7025 54.2267 55.9025 54.44C51.7425 55.3467 48.5425 56.3867 46.3025 57.56C44.0625 58.68 42.9425 60.2267 42.9425 62.2C42.9425 63.5333 43.3692 64.68 44.2225 65.64C45.1292 66.6 46.2492 67.3467 47.5825 67.88C48.9158 68.4133 50.2492 68.68 51.5825 68.68C51.9558 68.68 52.3558 68.6533 52.7825 68.6C53.2092 68.4933 53.6092 68.3867 53.9825 68.28C54.3558 68.12 54.6225 67.9867 54.7825 67.88C53.4492 67.4533 52.4358 66.7867 51.7425 65.88C51.1025 64.92 50.7825 63.8267 50.7825 62.6C50.7825 60.8933 51.3958 59.5867 52.6225 58.68C53.8492 57.7733 55.3692 57.32 57.1825 57.32C59.1025 57.32 60.5958 57.8267 61.6625 58.84C62.7825 59.8533 63.3425 61.16 63.3425 62.76C63.3425 64.4133 62.8358 65.8 61.8225 66.92C60.8092 67.9867 59.4492 68.7867 57.7425 69.32C56.0358 69.8 54.1158 70.04 51.9825 70.04C49.9025 70.04 47.9292 69.6667 46.0625 68.92C44.2492 68.1733 42.7825 67.0533 41.6625 65.56C40.5958 64.0133 40.0625 62.0933 40.0625 59.8C40.0625 56.9733 40.7825 54.6267 42.2225 52.76C43.6625 50.84 45.7158 49.2667 48.3825 48.04C51.1025 46.76 54.3025 45.7733 57.9825 45.08C59.1025 44.8133 60.3292 44.52 61.6625 44.2C63.0492 43.8267 64.4625 43.4533 65.9025 43.08C67.3425 42.7067 68.6758 42.3067 69.9025 41.88C73.7425 40.92 76.7025 39.8533 78.7825 38.68C80.9158 37.5067 81.9825 35.9333 81.9825 33.96C81.9825 32.52 81.5292 31.2667 80.6225 30.2C79.7692 29.08 78.6492 28.2267 77.2625 27.64C75.8758 27 74.4358 26.68 72.9425 26.68C72.4625 26.68 72.0092 26.7067 71.5825 26.76C71.2092 26.8133 70.8892 26.92 70.6225 27.08C71.9558 27.56 72.9425 28.28 73.5825 29.24C74.2225 30.2 74.5425 31.16 74.5425 32.12C74.5425 33.7733 73.9292 35.0533 72.7025 35.96C71.4758 36.8133 69.9558 37.24 68.1425 37.24C66.3292 37.24 64.8358 36.7867 63.6625 35.88C62.4892 34.92 61.9025 33.6133 61.9025 31.96C61.9025 30.52 62.3025 29.32 63.1025 28.36C63.9558 27.3467 65.1292 26.5733 66.6225 26.04C68.1158 25.5067 69.8758 25.24 71.9025 25.24Z" fill="#FFFCFC"/>
</g>
</g>
<defs>
<clipPath id="clip0_172_326">
<rect width="100" height="100"/>
</clipPath>
</defs>
</svg>
